<?xml version="1.0" encoding="UTF-8"?>
<svg version="1.1" xmlns="http://www.w3.org/2000/svg" width="512" height="512">
<path d="M0 0 C1.19012192 -0.00852997 2.38024384 -0.01705994 3.60643005 -0.02584839 C5.55232025 -0.02448883 5.55232025 -0.02448883 7.53752136 -0.02310181 C8.92427939 -0.02908944 10.31103409 -0.03589553 11.69778442 -0.04345703 C15.45825403 -0.06110158 19.21863257 -0.06581179 22.97913957 -0.0670886 C25.3309074 -0.06851177 27.68265219 -0.07278453 30.03441429 -0.07808304 C38.24575135 -0.09657903 46.45702354 -0.1047543 54.66838074 -0.10317993 C62.31138488 -0.10197902 69.9541064 -0.12307241 77.59703904 -0.15466726 C84.16792461 -0.18085823 90.73871803 -0.19154603 97.30965537 -0.19026911 C101.23015673 -0.18976025 105.15040692 -0.1954008 109.07085609 -0.21662521 C112.76049191 -0.23605513 116.44963821 -0.23610013 120.13929176 -0.22159195 C122.12967436 -0.21851929 124.12005725 -0.23514747 126.11036682 -0.25247192 C134.36436002 -0.1947015 139.86356208 0.71572108 146.31950378 6.17758179 C152.37385537 13.15655193 157.79121385 20.5561175 163.22184753 28.02523804 C168.51839006 35.29370715 174.00326408 42.41814283 179.46794128 49.56039429 C180.06993347 50.34978394 180.67192566 51.13917358 181.29216003 51.95248413 C182.47632623 53.50163753 183.66649257 55.04622198 184.86247253 56.58627319 C185.41290222 57.30218628 185.96333191 58.01809937 186.53044128 58.75570679 C187.0196405 59.38646118 187.50883972 60.01721558 188.01286316 60.66708374 C189.06169128 62.26742554 189.06169128 62.26742554 189.06169128 64.26742554 C190.29919128 64.18492554 191.53669128 64.10242554 192.81169128 64.01742554 C195.82421204 64.03879093 196.90517945 64.17351844 199.56169128 65.76742554 C201.68322512 69.30331526 201.85270429 72.24644277 201.06169128 76.26742554 C199.56169128 78.76742554 199.56169128 78.76742554 197.06169128 80.26742554 C194.30327555 80.58327467 191.85567674 80.45369123 189.06169128 80.26742554 C188.7872821 80.84887329 188.51287292 81.43032104 188.23014832 82.02938843 C187.08877617 84.21554774 185.83114588 86.09487575 184.36637878 88.07601929 C183.55173157 89.18094727 183.55173157 89.18094727 182.72062683 90.30819702 C182.1319281 91.09911743 181.54322937 91.89003784 180.93669128 92.70492554 C180.01593811 93.94834717 180.01593811 93.94834717 179.07658386 95.21688843 C173.67730765 102.48679072 168.2022445 109.69876699 162.69425964 116.88656616 C159.86130284 120.58375014 157.03256619 124.27930123 154.29606628 128.04867554 C148.93532225 135.41514013 144.62357862 140.8426706 136.06169128 144.26742554 C120.55169128 144.26742554 105.04169128 144.26742554 89.06169128 144.26742554 C89.06169128 194.42742554 89.06169128 244.58742554 89.06169128 296.26742554 C104.90169128 296.26742554 120.74169128 296.26742554 137.06169128 296.26742554 C137.01528503 291.81242554 136.96887878 287.35742554 136.92106628 282.76742554 C136.89531377 279.19878079 136.8736328 275.63016256 136.85469055 272.06147766 C136.83363195 268.30327482 136.80552597 264.54543716 136.75993347 260.78744507 C136.71623878 257.16289692 136.69250493 253.53870127 136.68218231 249.91390991 C136.67483297 248.5360866 136.66048182 247.15828099 136.63877106 245.78060913 C136.50073042 236.65204155 136.80699362 230.12268689 143.02653503 223.02523804 C143.6775116 222.48640991 144.32848816 221.94758179 144.99919128 221.39242554 C145.64758972 220.83812866 146.29598816 220.28383179 146.96403503 219.71273804 C152.22559268 216.08745623 156.94737512 215.97029194 163.13127136 215.97689819 C164.03598679 215.97018097 164.94070221 215.96346375 165.87283325 215.95654297 C168.85901914 215.93757001 171.84498015 215.93363901 174.83122253 215.93148804 C176.91241548 215.92505927 178.99360753 215.91833085 181.07479858 215.91131592 C185.43674311 215.89934465 189.79860845 215.89563491 194.16056824 215.89682007 C199.73907801 215.89702316 205.31707781 215.86972982 210.8954668 215.83527565 C215.19442051 215.81299375 219.49325178 215.80898294 223.79225731 215.81003952 C225.8482762 215.80768518 227.90429855 215.79887108 229.96026039 215.78337479 C232.84184169 215.76369047 235.72232714 215.76956275 238.60392761 215.78158569 C239.4462796 215.77034668 240.28863159 215.75910767 241.1565094 215.74752808 C247.95747833 215.81931998 253.16204623 217.72644738 258.30387878 222.23226929 C258.84270691 222.88324585 259.38153503 223.53422241 259.93669128 224.20492554 C260.49098816 224.85332397 261.04528503 225.50172241 261.61637878 226.16976929 C264.44337255 230.27273052 265.31229539 233.83835816 265.25700378 238.78695679 C265.25055847 239.80853882 265.24411316 240.83012085 265.23747253 241.88265991 C265.22071472 242.93775757 265.20395691 243.99285522 265.18669128 245.07992554 C265.17766785 246.15435913 265.16864441 247.22879272 265.15934753 248.33578491 C265.13584552 250.97976106 265.09997645 253.62362213 265.06169128 256.26742554 C270.34169128 256.26742554 275.62169128 256.26742554 281.06169128 256.26742554 C281.01528503 253.71508179 280.96887878 251.16273804 280.92106628 248.53305054 C280.88985972 246.05748482 280.86557831 243.58194113 280.84196472 241.10629272 C280.821865 239.38744275 280.7945804 237.66866102 280.75993347 235.95004272 C280.71134095 233.47754064 280.68870694 231.00594343 280.67106628 228.53305054 C280.65042114 227.76623962 280.629776 226.99942871 280.60850525 226.2093811 C280.60700425 222.63009586 280.75456001 220.66898586 282.96110535 217.7840271 C285.23386534 216.14311763 286.29162114 215.72414319 289.06169128 215.76742554 C290.05169128 215.75195679 290.05169128 215.75195679 291.06169128 215.73617554 C294.19510983 216.56848984 295.14035014 217.61058635 297.06169128 220.26742554 C297.67753701 223.84511053 297.62179156 227.39463443 297.59294128 231.01742554 C297.59676819 232.06768921 297.60059509 233.11795288 297.60453796 234.20004272 C297.60725824 236.419128 297.59988905 238.63824528 297.58317566 240.85726929 C297.56176874 244.25513149 297.58297454 247.65087915 297.60856628 251.04867554 C297.60592303 253.20493021 297.6007981 255.36118356 297.59294128 257.51742554 C297.60103821 258.53417358 297.60913513 259.55092163 297.61747742 260.59848022 C297.52550166 267.5122364 297.52550166 267.5122364 295.43571472 270.91488647 C292.30010311 272.7013209 290.14788024 272.72353806 286.54606628 272.65805054 C285.41910339 272.6480603 284.2921405 272.63807007 283.13102722 272.6277771 C281.70564636 272.59136108 280.2802655 272.55494507 278.81169128 272.51742554 C274.27419128 272.43492554 269.73669128 272.35242554 265.06169128 272.26742554 C265.06169128 285.46742554 265.06169128 298.66742554 265.06169128 312.26742554 C270.34169128 312.26742554 275.62169128 312.26742554 281.06169128 312.26742554 C281.01528503 310.87008179 280.96887878 309.47273804 280.92106628 308.03305054 C280.88354546 306.19453025 280.84714563 304.35598684 280.81169128 302.51742554 C280.77817566 301.59703491 280.74466003 300.67664429 280.71012878 299.72836304 C280.6116387 292.93254749 280.6116387 292.93254749 282.82731628 289.65805054 C285.15771826 288.2076605 286.34454262 287.72497009 289.06169128 287.76742554 C290.05169128 287.75195679 290.05169128 287.75195679 291.06169128 287.73617554 C293.98092518 288.51159704 295.15531196 289.95610074 297.06169128 292.26742554 C297.56962585 294.84750366 297.56962585 294.84750366 297.57926941 297.79867554 C297.59187805 298.90662476 297.60448669 300.01457397 297.61747742 301.15609741 C297.60533203 302.94370483 297.60533203 302.94370483 297.59294128 304.76742554 C297.59676819 305.99525757 297.60059509 307.2230896 297.60453796 308.48812866 C297.6072597 311.08384013 297.5998804 313.6795789 297.58317566 316.27523804 C297.56177203 320.25242153 297.58297091 324.22779835 297.60856628 328.20492554 C297.60592306 330.72576287 297.60079819 333.24659907 297.59294128 335.76742554 C297.60103821 336.95916382 297.60913513 338.1509021 297.61747742 339.37875366 C297.60486877 340.48670288 297.59226013 341.5946521 297.57926941 342.73617554 C297.57608704 343.71006226 297.57290466 344.68394897 297.56962585 345.68734741 C296.91965763 348.98889235 295.64631532 350.18320209 293.06169128 352.26742554 C291.06169128 352.79867554 291.06169128 352.79867554 289.06169128 352.76742554 C288.07169128 352.78289429 288.07169128 352.78289429 287.06169128 352.79867554 C283.90856363 351.961126 282.90572137 350.99267355 281.06169128 348.26742554 C280.57217032 344.83773827 280.6858677 341.47273479 280.81169128 338.01742554 C280.82973816 337.08156616 280.84778503 336.14570679 280.86637878 335.18148804 C280.91342219 332.87636115 280.98516351 330.571762 281.06169128 328.26742554 C275.78169128 328.26742554 270.50169128 328.26742554 265.06169128 328.26742554 C265.08263855 330.61867554 265.10358582 332.96992554 265.12516785 335.39242554 C265.19158334 343.17950686 265.23568466 350.96660101 265.26893997 358.75389099 C265.28977384 363.47323649 265.31801433 368.19229065 265.3634491 372.91146851 C265.40705724 377.4696843 265.43085996 382.02762068 265.44120026 386.58602905 C265.44856484 388.32109981 265.46294612 390.05615606 265.48461151 391.79110718 C265.5138454 394.23015845 265.5176391 396.66806973 265.51579285 399.10726929 C265.5373645 400.17218849 265.5373645 400.17218849 265.55937195 401.25862122 C265.50716294 407.67444869 263.27776405 412.73854727 259.09684753 417.50961304 C258.44587097 418.04844116 257.79489441 418.58726929 257.12419128 419.14242554 C256.47579285 419.69672241 255.82739441 420.25101929 255.15934753 420.82211304 C249.89778989 424.44739484 245.17600745 424.56455914 238.99211121 424.55795288 C238.08739578 424.5646701 237.18268036 424.57138733 236.25054932 424.57830811 C233.26436343 424.59728107 230.27840242 424.60121206 227.29216003 424.60336304 C225.21096708 424.60979181 223.12977504 424.61652023 221.04858398 424.62353516 C216.68663946 424.63550643 212.32477412 424.63921617 207.96281433 424.63803101 C202.38430456 424.63782791 196.80630476 424.66512125 191.22791576 424.69957542 C186.92896206 424.72185732 182.63013079 424.72586813 178.33112526 424.72481155 C176.27510637 424.7271659 174.21908402 424.73598 172.16312218 424.75147629 C169.28154087 424.77116061 166.40105542 424.76528833 163.51945496 424.75326538 C162.67710297 424.76450439 161.83475098 424.77574341 160.96687317 424.787323 C154.16590424 424.71553109 148.96133633 422.80840369 143.81950378 418.30258179 C143.28067566 417.65160522 142.74184753 417.00062866 142.18669128 416.32992554 C141.63239441 415.6815271 141.07809753 415.03312866 140.50700378 414.36508179 C137.47739877 409.96806045 136.81342685 406.20940174 136.8346405 400.91659546 C136.8348671 399.02520088 136.8348671 399.02520088 136.83509827 397.09559631 C136.84530992 395.72969401 136.85574189 394.36379334 136.86637878 392.99789429 C136.87011188 391.59256695 136.87295745 390.187237 136.87495422 388.78190613 C136.8825674 385.09442886 136.90219576 381.40711072 136.92436218 377.71969604 C136.94487069 373.95242504 136.95407641 370.1851274 136.96403503 366.41781616 C136.98438115 359.03421237 137.02353305 351.65104478 137.06169128 344.26742554 C121.22169128 344.26742554 105.38169128 344.26742554 89.06169128 344.26742554 C89.10809753 351.43976929 89.15450378 358.61211304 89.20231628 366.00180054 C89.22275021 370.54087748 89.24200568 375.07989785 89.25700378 379.61898804 C89.28093145 386.82646435 89.30926239 394.03373774 89.3634491 401.24105835 C89.40685468 407.0506335 89.43081752 412.85999111 89.44120026 418.66971588 C89.44860108 420.88814978 89.46305285 423.10657154 89.48461151 425.32491302 C89.51357463 428.42808425 89.51765018 431.53035222 89.51579285 434.63363647 C89.53017395 435.55432922 89.54455505 436.47502197 89.55937195 437.4236145 C89.51894475 443.65029098 89.51894475 443.65029098 87.15830994 446.83633423 C84.8942955 448.38168507 83.77649664 448.80984437 81.06169128 448.76742554 C80.07169128 448.78289429 80.07169128 448.78289429 79.06169128 448.79867554 C76.15385376 448.02628119 74.96894211 446.55959942 73.06169128 444.26742554 C72.5648973 441.84702277 72.5648973 441.84702277 72.56949997 439.09002304 C72.55755368 437.51054874 72.55755368 437.51054874 72.54536605 435.89916587 C72.5628431 434.16571618 72.5628431 434.16571618 72.58067322 432.39724731 C72.57725552 431.16876391 72.57383782 429.9402805 72.57031655 428.67457032 C72.56486049 425.26279386 72.57738471 421.85193211 72.5974288 418.44026613 C72.61468366 414.76204721 72.6088585 411.08385713 72.6058197 407.40560913 C72.60372109 401.0322473 72.61628363 394.65904912 72.63877106 388.28572845 C72.67126297 379.0709761 72.68169519 369.85630298 72.68672302 360.64149955 C72.6954801 345.69156803 72.72210684 330.74172375 72.75993347 315.7918396 C72.7966429 301.26840654 72.82495989 286.74499717 72.84196472 272.2215271 C72.84301562 271.32647932 72.84406651 270.43143154 72.84514925 269.5092611 C72.85036935 265.01912241 72.8554242 260.52898355 72.86039686 256.03884459 C72.90187173 218.7816427 72.97262846 181.52454232 73.06169128 144.26742554 C67.78169128 144.26742554 62.50169128 144.26742554 57.06169128 144.26742554 C57.06537846 145.80985806 57.06906563 147.35229057 57.07286453 148.94146347 C57.15944558 185.53356848 57.22542809 222.12565928 57.2659526 258.71784531 C57.27095559 263.21907275 57.27613286 267.72029998 57.28141785 272.2215271 C57.28246709 273.11766229 57.28351633 274.01379748 57.28459737 274.93708828 C57.30201537 289.458238 57.33356073 303.97932454 57.37030247 318.50043675 C57.4076731 333.39401556 57.42991891 348.28756123 57.43804526 363.18118501 C57.4435411 372.37566514 57.46091582 381.56996674 57.49335715 390.76439193 C57.51445721 397.06440037 57.52090159 403.36431616 57.51569679 409.66435739 C57.51312794 413.30235419 57.51713969 416.94003844 57.53851318 420.57798004 C57.56149218 424.51785273 57.55367043 428.45731474 57.54270935 432.39724731 C57.5601864 434.130697 57.5601864 434.130697 57.57801652 435.89916587 C57.57005233 436.95214874 57.56208813 438.0051316 57.5538826 439.09002304 C57.55616092 440.45473791 57.55616092 440.45473791 57.55848527 441.84702277 C56.90425326 445.03447071 55.54668253 446.23882163 53.06169128 448.26742554 C51.06169128 448.79867554 51.06169128 448.79867554 49.06169128 448.76742554 C48.07169128 448.78289429 48.07169128 448.78289429 47.06169128 448.79867554 C44.15385376 448.02628119 42.96894211 446.55959942 41.06169128 444.26742554 C40.5648973 441.84702277 40.5648973 441.84702277 40.56949997 439.09002304 C40.55755368 437.51054874 40.55755368 437.51054874 40.54536605 435.89916587 C40.5628431 434.16571618 40.5628431 434.16571618 40.58067322 432.39724731 C40.57725552 431.16876391 40.57383782 429.9402805 40.57031655 428.67457032 C40.56486049 425.26279386 40.57738471 421.85193211 40.5974288 418.44026613 C40.61468366 414.76204721 40.6088585 411.08385713 40.6058197 407.40560913 C40.60372109 401.0322473 40.61628363 394.65904912 40.63877106 388.28572845 C40.67126297 379.0709761 40.68169519 369.85630298 40.68672302 360.64149955 C40.6954801 345.69156803 40.72210684 330.74172375 40.75993347 315.7918396 C40.7966429 301.26840654 40.82495989 286.74499717 40.84196472 272.2215271 C40.84354106 270.87895543 40.84354106 270.87895543 40.84514925 269.5092611 C40.85036935 265.01912241 40.8554242 260.52898355 40.86039686 256.03884459 C40.90187173 218.7816433 40.97233136 181.52454121 41.06169128 144.26742554 C40.4906366 144.27630798 39.91958191 144.28519043 39.33122253 144.29434204 C33.36111002 144.38317594 27.39118678 144.44330859 21.420578 144.4871521 C19.19556546 144.507206 16.97060522 144.53445618 14.74577332 144.56918335 C11.53844764 144.61797488 8.33182177 144.64045715 5.12419128 144.65805054 C3.64402527 144.68901825 3.64402527 144.68901825 2.13395691 144.72061157 C-5.25850653 144.72298664 -10.51733005 143.16164452 -16.19612122 138.35726929 C-22.25047281 131.37829915 -27.66783128 123.97873358 -33.09846497 116.50961304 C-38.39500749 109.24114393 -43.87988151 102.11670824 -49.34455872 94.97445679 C-49.9465509 94.18506714 -50.54854309 93.39567749 -51.16877747 92.58236694 C-52.35294366 91.03321354 -53.54311 89.48862909 -54.73908997 87.94857788 C-55.28951965 87.23266479 -55.83994934 86.51675171 -56.40705872 85.77914429 C-56.89625793 85.14838989 -57.38545715 84.5176355 -57.88948059 83.86776733 C-58.93830872 82.26742554 -58.93830872 82.26742554 -58.93830872 80.26742554 C-60.17580872 80.34992554 -61.41330872 80.43242554 -62.68830872 80.51742554 C-65.70082948 80.49606014 -66.78179688 80.36133264 -69.43830872 78.76742554 C-71.55984255 75.23153581 -71.72932172 72.28840831 -70.93830872 68.26742554 C-69.43830872 65.76742554 -69.43830872 65.76742554 -66.93830872 64.26742554 C-64.17989298 63.95157641 -61.73229417 64.08115984 -58.93830872 64.26742554 C-58.66389954 63.68597778 -58.38949036 63.10453003 -58.10676575 62.50546265 C-56.9653936 60.31930333 -55.70776331 58.43997533 -54.24299622 56.45883179 C-53.69989807 55.72221313 -53.15679993 54.98559448 -52.59724426 54.22665405 C-52.00854553 53.43573364 -51.4198468 52.64481323 -50.81330872 51.82992554 C-50.19947327 51.00097778 -49.58563782 50.17203003 -48.95320129 49.31796265 C-43.55392508 42.04806035 -38.07886193 34.83608408 -32.57087708 27.64828491 C-29.73792027 23.95110093 -26.90918362 20.25554985 -24.17268372 16.48617554 C-17.59474884 7.44710856 -11.93355931 0.03875143 0 0 Z M-6.86604309 21.23422241 C-7.41582825 21.97736694 -7.9656134 22.72051147 -8.53205872 23.48617554 C-9.16345764 24.32728882 -9.79485657 25.1684021 -10.44538879 26.03500366 C-11.10305237 26.93670288 -11.76071594 27.8384021 -12.43830872 28.76742554 C-13.12884338 29.69490601 -13.81937805 30.62238647 -14.53083801 31.57797241 C-15.96426083 33.50688122 -17.39218905 35.43988457 -18.81477356 37.37680054 C-20.86085989 40.16199968 -22.92231744 42.93505553 -24.98908997 45.70492554 C-28.5755728 50.52686514 -28.5755728 50.52686514 -32.14533997 55.36117554 C-32.84880554 56.31540405 -32.84880554 56.31540405 -33.56648254 57.28890991 C-35.1305393 59.54467001 -36.52604578 61.91365398 -37.93830872 64.26742554 C-30.34830872 64.26742554 -22.75830872 64.26742554 -14.93830872 64.26742554 C-14.27830872 61.62742554 -13.61830872 58.98742554 -12.93830872 56.26742554 C-10.65238723 52.76234593 -8.77826743 50.85453845 -4.93830872 49.26742554 C-2.82725525 49 -2.82725525 49 -0.5403595 48.97689819 C0.32088531 48.96413849 1.18213013 48.95137878 2.06947327 48.93823242 C3.4539415 48.93489395 3.4539415 48.93489395 4.86637878 48.93148804 C6.301483 48.92150284 6.301483 48.92150284 7.76557922 48.91131592 C9.78792908 48.90119912 11.81031225 48.8964986 13.83268738 48.89682007 C16.91869946 48.89245101 20.00327629 48.85613231 23.08903503 48.81820679 C25.05647807 48.81233753 27.02392789 48.80836887 28.99137878 48.80648804 C29.91030914 48.792117 30.8292395 48.77774597 31.77601624 48.76293945 C37.37516465 48.80265249 40.63896015 49.49328049 45.06169128 53.26742554 C48.02348554 57.14839732 48.20662826 59.13704738 49.06169128 64.26742554 C59.62169128 64.26742554 70.18169128 64.26742554 81.06169128 64.26742554 C81.72169128 61.62742554 82.38169128 58.98742554 83.06169128 56.26742554 C85.34761277 52.76234593 87.22173257 50.85453845 91.06169128 49.26742554 C93.17274475 49 93.17274475 49 95.4596405 48.97689819 C96.32088531 48.96413849 97.18213013 48.95137878 98.06947327 48.93823242 C99.4539415 48.93489395 99.4539415 48.93489395 100.86637878 48.93148804 C102.301483 48.92150284 102.301483 48.92150284 103.76557922 48.91131592 C105.78792908 48.90119912 107.81031225 48.8964986 109.83268738 48.89682007 C112.91869946 48.89245101 116.00327629 48.85613231 119.08903503 48.81820679 C121.05647807 48.81233753 123.02392789 48.80836887 124.99137878 48.80648804 C125.91030914 48.792117 126.8292395 48.77774597 127.77601624 48.76293945 C133.37516465 48.80265249 136.63896015 49.49328049 141.06169128 53.26742554 C144.02348554 57.14839732 144.20662826 59.13704738 145.06169128 64.26742554 C152.65169128 64.26742554 160.24169128 64.26742554 168.06169128 64.26742554 C163.37273059 57.17812729 163.37273059 57.17812729 158.39762878 50.35726929 C157.75607849 49.51978149 157.1145282 48.6822937 156.45353699 47.81942749 C155.78797791 46.95664185 155.12241882 46.0938562 154.43669128 45.20492554 C146.30242296 34.63404292 146.30242296 34.63404292 142.52653503 29.41586304 C141.99044617 28.67988892 141.4543573 27.94391479 140.90202332 27.18563843 C139.91056393 25.81917356 138.92789213 24.44627291 137.95573425 23.06600952 C135.26854915 19.38199695 133.39505228 17.61219501 129.06169128 16.26742554 C126.43095604 15.96803725 126.43095604 15.96803725 123.64141846 16.00672913 C122.56620438 15.99964432 121.4909903 15.99255951 120.38319397 15.98526001 C118.62895615 15.98897614 118.62895615 15.98897614 116.83927917 15.99276733 C115.59972977 15.9876564 114.36018036 15.98254547 113.08306885 15.97727966 C109.69042758 15.96577163 106.29803085 15.96330839 102.90538716 15.96584296 C100.06993321 15.96691419 97.2345017 15.96202544 94.39905256 15.95723754 C87.70821253 15.94615033 81.01742864 15.94570057 74.32658386 15.95175171 C67.43111535 15.95779214 60.53585086 15.94547704 53.64041716 15.92418164 C47.71329451 15.90655184 41.78623673 15.90056643 35.85908884 15.90381938 C32.32211058 15.90563014 28.78527788 15.9030169 25.24832344 15.88910484 C21.30330049 15.87416766 17.35853637 15.88350874 13.41349792 15.89511108 C12.24603027 15.88746735 11.07856262 15.87982361 9.87571716 15.87194824 C3.15915463 15.91565009 -1.92169204 16.18968187 -6.86604309 21.23422241 Z M1.06169128 64.26742554 C1.06169128 69.54742554 1.06169128 74.82742554 1.06169128 80.26742554 C11.62169128 80.26742554 22.18169128 80.26742554 33.06169128 80.26742554 C33.06169128 74.98742554 33.06169128 69.70742554 33.06169128 64.26742554 C22.50169128 64.26742554 11.94169128 64.26742554 1.06169128 64.26742554 Z M97.06169128 64.26742554 C97.06169128 69.54742554 97.06169128 74.82742554 97.06169128 80.26742554 C107.62169128 80.26742554 118.18169128 80.26742554 129.06169128 80.26742554 C129.06169128 74.98742554 129.06169128 69.70742554 129.06169128 64.26742554 C118.50169128 64.26742554 107.94169128 64.26742554 97.06169128 64.26742554 Z M-37.93830872 80.26742554 C-33.24934802 87.35672379 -33.24934802 87.35672379 -28.27424622 94.17758179 C-27.63269592 95.01506958 -26.99114563 95.85255737 -26.33015442 96.71542358 C-25.66459534 97.57820923 -24.99903625 98.44099487 -24.31330872 99.32992554 C-16.1790404 109.90080815 -16.1790404 109.90080815 -12.40315247 115.11898804 C-11.8670636 115.85496216 -11.33097473 116.59093628 -10.77864075 117.34921265 C-9.78718137 118.71567752 -8.80450956 120.08857816 -7.83235168 121.46884155 C-5.14516659 125.15285413 -3.27166971 126.92265606 1.06169128 128.26742554 C3.69242653 128.56681382 3.69242653 128.56681382 6.48196411 128.52812195 C7.55717819 128.53520676 8.63239227 128.54229156 9.7401886 128.54959106 C10.90968048 128.54711365 12.07917236 128.54463623 13.28410339 128.54208374 C14.5236528 128.54719467 15.76320221 128.5523056 17.04031372 128.55757141 C20.43295499 128.56907944 23.82535172 128.57154269 27.21799541 128.56900811 C30.05344935 128.56793688 32.88888087 128.57282563 35.72433001 128.57761353 C42.41517004 128.58870075 49.10595393 128.58915051 55.79679871 128.58309937 C62.69226721 128.57705893 69.58753171 128.58937403 76.48296541 128.61066943 C82.41008805 128.62829924 88.33714584 128.63428464 94.26429373 128.63103169 C97.80127199 128.62922093 101.33810468 128.63183417 104.87505913 128.64574623 C108.82008208 128.66068341 112.7648462 128.65134234 116.70988464 128.63973999 C118.46108612 128.6512056 118.46108612 128.6512056 120.24766541 128.66290283 C125.91058661 128.62605659 130.21859273 128.56625562 135.06169128 125.26742554 C137.04324011 123.33620134 137.04324011 123.33620134 138.65544128 121.04867554 C139.28684021 120.20756226 139.91823914 119.36644897 140.56877136 118.49984741 C141.22643494 117.59814819 141.88409851 116.69644897 142.56169128 115.76742554 C143.25222595 114.83994507 143.94276062 113.9124646 144.65422058 112.95687866 C146.08764339 111.02796985 147.51557162 109.09496651 148.93815613 107.15805054 C150.98424246 104.37285139 153.04570001 101.59979554 155.11247253 98.82992554 C158.69895537 94.00798594 158.69895537 94.00798594 162.26872253 89.17367554 C162.73769958 88.53752319 163.20667664 87.90137085 163.68986511 87.24594116 C165.25392187 84.99018107 166.64942835 82.6211971 168.06169128 80.26742554 C160.47169128 80.26742554 152.88169128 80.26742554 145.06169128 80.26742554 C144.40169128 82.90742554 143.74169128 85.54742554 143.06169128 88.26742554 C140.7757698 91.77250515 138.90165 93.68031263 135.06169128 95.26742554 C132.95063782 95.53485107 132.95063782 95.53485107 130.66374207 95.55795288 C129.37187485 95.57709244 129.37187485 95.57709244 128.0539093 95.59661865 C127.13093048 95.5988443 126.20795166 95.60106995 125.25700378 95.60336304 C123.82189957 95.61334824 123.82189957 95.61334824 122.35780334 95.62353516 C120.33545349 95.63365195 118.31307032 95.63835248 116.29069519 95.63803101 C113.20468311 95.64240006 110.12010627 95.67871876 107.03434753 95.71664429 C105.06690449 95.72251354 103.09945468 95.72648221 101.13200378 95.72836304 C99.75360825 95.74991959 99.75360825 95.74991959 98.34736633 95.77191162 C92.74821792 95.73219858 89.48442242 95.04157058 85.06169128 91.26742554 C82.09989703 87.38645376 81.91675431 85.39780369 81.06169128 80.26742554 C70.50169128 80.26742554 59.94169128 80.26742554 49.06169128 80.26742554 C48.40169128 82.90742554 47.74169128 85.54742554 47.06169128 88.26742554 C44.7757698 91.77250515 42.90165 93.68031263 39.06169128 95.26742554 C36.95063782 95.53485107 36.95063782 95.53485107 34.66374207 95.55795288 C33.37187485 95.57709244 33.37187485 95.57709244 32.0539093 95.59661865 C31.13093048 95.5988443 30.20795166 95.60106995 29.25700378 95.60336304 C27.82189957 95.61334824 27.82189957 95.61334824 26.35780334 95.62353516 C24.33545349 95.63365195 22.31307032 95.63835248 20.29069519 95.63803101 C17.20468311 95.64240006 14.12010627 95.67871876 11.03434753 95.71664429 C9.06690449 95.72251354 7.09945468 95.72648221 5.13200378 95.72836304 C4.21307343 95.74273407 3.29414307 95.7571051 2.34736633 95.77191162 C-3.25178208 95.73219858 -6.51557758 95.04157058 -10.93830872 91.26742554 C-13.90010297 87.38645376 -14.08324569 85.39780369 -14.93830872 80.26742554 C-22.52830872 80.26742554 -30.11830872 80.26742554 -37.93830872 80.26742554 Z M155.06169128 235.26742554 C153.01531727 239.18399867 152.80869161 242.52530796 152.80099487 246.90254211 C152.79716933 247.55594922 152.79334378 248.20935633 152.78940231 248.88256365 C152.77911283 251.06423766 152.78305663 253.2456465 152.78703308 255.42733765 C152.78268437 256.99467715 152.77750069 258.56201453 152.77154541 260.12934875 C152.7581616 264.38141003 152.75757603 268.63338238 152.76010871 272.88546062 C152.76117879 276.43668729 152.75629411 279.987896 152.75150329 283.53911883 C152.74041034 291.91756222 152.73996957 300.29596078 152.74601746 308.67440796 C152.75205861 317.31487076 152.73974219 325.95517077 152.71844739 334.59560579 C152.70082925 342.01740555 152.69483034 349.43915351 152.69808513 356.86097342 C152.69989772 361.29220192 152.69726418 365.72331429 152.68337059 370.15452385 C152.67079333 374.32177357 152.67273531 378.48876956 152.68578148 382.6560154 C152.688147 384.18381715 152.68541341 385.71163675 152.67715836 387.23941803 C152.66668666 389.32834746 152.67479383 391.41642614 152.68746948 393.50532532 C152.68730174 394.67319549 152.687134 395.84106565 152.68696117 397.04432583 C153.11328013 400.71114756 154.15510441 403.12267448 156.06169128 406.26742554 C160.05474711 408.73306055 164.31164506 408.5577811 168.87785339 408.54208374 C169.64923141 408.54719467 170.42060944 408.5523056 171.21536255 408.55757141 C173.75666638 408.57143295 176.29769797 408.5705133 178.83903503 408.56820679 C180.61113587 408.57209551 182.38323577 408.57643055 184.15533447 408.58119202 C187.86658248 408.58864676 191.57773534 408.58836829 195.28898621 408.58309937 C200.03809215 408.57730467 204.7868081 408.59423927 209.53584957 408.61744404 C213.19477606 408.63219592 216.85360893 408.63305112 220.51255989 408.62993431 C222.26320226 408.63044676 224.01384998 408.63567008 225.76446342 408.64574623 C228.21527629 408.65812216 230.66533332 408.6513125 233.11613464 408.63973999 C233.83476685 408.64738373 234.55339905 408.65502747 235.29380798 408.66290283 C239.93401983 408.61462325 243.20795819 407.890774 247.06169128 405.26742554 C249.1080653 401.3508524 249.31469095 398.00954311 249.3223877 393.63230896 C249.32621324 392.97890185 249.33003879 392.32549475 249.33398026 391.65228742 C249.34426974 389.47061341 249.34032593 387.28920458 249.33634949 385.10751343 C249.3406982 383.54017392 249.34588188 381.97283654 249.35183716 380.40550232 C249.36522097 376.15344105 249.36580654 371.90146869 249.36327386 367.64939046 C249.36220377 364.09816378 249.36708845 360.54695507 249.37187928 356.99573225 C249.38297223 348.61728886 249.383413 340.2388903 249.37736511 331.86044312 C249.37132396 323.21998032 249.38364038 314.57968031 249.40493518 305.93924528 C249.42255332 298.51744552 249.42855222 291.09569756 249.42529744 283.67387766 C249.42348485 279.24264915 249.42611838 274.81153678 249.44001198 270.38032722 C249.45258924 266.2130775 249.45064726 262.04608151 249.43760109 257.87883568 C249.43523557 256.35103393 249.43796915 254.82321432 249.44622421 253.29543304 C249.45669591 251.20650361 249.44858874 249.11842494 249.43591309 247.02952576 C249.43608083 245.86165559 249.43624857 244.69378542 249.43642139 243.49052525 C249.01010244 239.82370351 247.96827816 237.4121766 246.06169128 234.26742554 C242.06863546 231.80179052 237.81173751 231.97706998 233.24552917 231.99276733 C232.08846214 231.98510094 232.08846214 231.98510094 230.90802002 231.97727966 C228.36671619 231.96341812 225.8256846 231.96433778 223.28434753 231.96664429 C221.5122467 231.96275556 219.7401468 231.95842053 217.9680481 231.95365906 C214.25680009 231.94620432 210.54564723 231.94648279 206.83439636 231.95175171 C202.08529042 231.9575464 197.33657447 231.9406118 192.587533 231.91740704 C188.92860651 231.90265515 185.26977364 231.90179996 181.61082268 231.90491676 C179.86018031 231.90440432 178.10953259 231.89918099 176.35891914 231.88910484 C173.90810628 231.87672892 171.45804925 231.88353858 169.00724792 231.89511108 C167.92929962 231.88364548 167.92929962 231.88364548 166.82957458 231.87194824 C162.18936273 231.92022782 158.91542438 232.64407708 155.06169128 235.26742554 Z M89.06169128 312.26742554 C89.06169128 317.54742554 89.06169128 322.82742554 89.06169128 328.26742554 C104.90169128 328.26742554 120.74169128 328.26742554 137.06169128 328.26742554 C137.06169128 322.98742554 137.06169128 317.70742554 137.06169128 312.26742554 C121.22169128 312.26742554 105.38169128 312.26742554 89.06169128 312.26742554 Z " fill="#1F1F1F" transform="translate(142.9383087158203,31.732574462890625)"/>
<path d="M0 0 C1.10794922 -0.01260864 2.21589844 -0.02521729 3.35742188 -0.03820801 C4.54916016 -0.03011108 5.74089844 -0.02201416 6.96875 -0.01367188 C8.19658203 -0.01749878 9.42441406 -0.02132568 10.68945312 -0.02526855 C13.28516459 -0.02799029 15.88090336 -0.02061099 18.4765625 -0.00390625 C22.45374599 0.01749738 26.42912282 -0.0037015 30.40625 -0.02929688 C32.92708733 -0.02665365 35.44792353 -0.02152878 37.96875 -0.01367188 C39.16048828 -0.0217688 40.35222656 -0.02986572 41.58007812 -0.03820801 C43.24200195 -0.01929504 43.24200195 -0.01929504 44.9375 0 C45.91138672 0.00318237 46.88527344 0.00636475 47.88867188 0.00964355 C51.32739197 0.68661717 52.4609304 1.65443348 54.46875 4.51757812 C54.97668457 7.70507812 54.97668457 7.70507812 54.98632812 11.51757812 C54.9933374 12.21399414 55.00034668 12.91041016 55.00756836 13.62792969 C55.02514196 15.92488744 55.01352919 18.22060833 55 20.51757812 C55.00269513 22.11653886 55.00657773 23.715498 55.01159668 25.31445312 C55.01749082 28.66357038 55.00893192 32.01226056 54.99023438 35.36132812 C54.96744435 39.65236403 54.98056796 43.94239924 55.00452423 48.23339844 C55.0189848 51.53458179 55.01437515 54.83552823 55.00401306 58.13671875 C55.00134646 59.71875121 55.00461322 61.30080524 55.01393127 62.8828125 C55.02410179 65.09497975 55.0085919 67.30553112 54.98632812 69.51757812 C54.98314575 70.77570313 54.97996338 72.03382813 54.97668457 73.33007812 C54.46875 76.51757812 54.46875 76.51757812 52.78210449 78.92272949 C49.94444632 80.87903808 48.36687042 81.02395008 44.9375 81.03515625 C43.82955078 81.04776489 42.72160156 81.06037354 41.58007812 81.07336426 C40.38833984 81.06526733 39.19660156 81.05717041 37.96875 81.04882812 C36.12700195 81.05456848 36.12700195 81.05456848 34.24804688 81.0604248 C31.65233541 81.06314654 29.05659664 81.05576724 26.4609375 81.0390625 C22.48375401 81.01765887 18.50837718 81.03885775 14.53125 81.06445312 C12.01041267 81.0618099 9.48957647 81.05668503 6.96875 81.04882812 C5.18114258 81.06097351 5.18114258 81.06097351 3.35742188 81.07336426 C2.24947266 81.06075562 1.14152344 81.04814697 0 81.03515625 C-0.97388672 81.03197388 -1.94777344 81.0287915 -2.95117188 81.0255127 C-6.38989197 80.34853908 -7.5234304 79.38072277 -9.53125 76.51757812 C-10.03918457 73.33007812 -10.03918457 73.33007812 -10.04882812 69.51757812 C-10.0558374 68.82116211 -10.06284668 68.12474609 -10.07006836 67.40722656 C-10.08764196 65.11026881 -10.07602919 62.81454792 -10.0625 60.51757812 C-10.06519513 58.91861739 -10.06907773 57.31965825 -10.07409668 55.72070312 C-10.07999082 52.37158587 -10.07143192 49.02289569 -10.05273438 45.67382812 C-10.02994435 41.38279222 -10.04306796 37.09275701 -10.06702423 32.80175781 C-10.0814848 29.50057446 -10.07687515 26.19962802 -10.06651306 22.8984375 C-10.06384646 21.31640504 -10.06711322 19.73435101 -10.07643127 18.15234375 C-10.08660179 15.9401765 -10.0710919 13.72962513 -10.04882812 11.51757812 C-10.04564575 10.25945312 -10.04246338 9.00132812 -10.03918457 7.70507812 C-9.53125 4.51757812 -9.53125 4.51757812 -7.84460449 2.11242676 C-5.00694632 0.15611817 -3.42937042 0.01120617 0 0 Z M6.46875 16.51757812 C6.46875 32.35757812 6.46875 48.19757813 6.46875 64.51757812 C17.02875 64.51757812 27.58875 64.51757812 38.46875 64.51757812 C38.46875 48.67757812 38.46875 32.83757812 38.46875 16.51757812 C27.90875 16.51757812 17.34875 16.51757812 6.46875 16.51757812 Z " fill="#202020" transform="translate(321.53125,279.482421875)"/>
<path d="M0 0 C2.5 1.5 2.5 1.5 4 4 C4.791013 8.02098277 4.62153384 10.96411027 2.5 14.5 C-1.03588973 16.62153384 -3.97901723 16.791013 -8 16 C-10.5 14.5 -10.5 14.5 -12 12 C-12.791013 7.97901723 -12.62153384 5.03588973 -10.5 1.5 C-6.96411027 -0.62153384 -4.02098277 -0.791013 0 0 Z " fill="#202020" transform="translate(372,416)"/>
<path d="M0 0 C2.5 1.5 2.5 1.5 4 4 C4.791013 8.02098277 4.62153384 10.96411027 2.5 14.5 C-1.03588973 16.62153384 -3.97901723 16.791013 -8 16 C-10.5 14.5 -10.5 14.5 -12 12 C-12.791013 7.97901723 -12.62153384 5.03588973 -10.5 1.5 C-6.96411027 -0.62153384 -4.02098277 -0.791013 0 0 Z " fill="#202020" transform="translate(348,416)"/>
<path d="M0 0 C2.5 1.5 2.5 1.5 4 4 C4.791013 8.02098277 4.62153384 10.96411027 2.5 14.5 C-1.03588973 16.62153384 -3.97901723 16.791013 -8 16 C-10.5 14.5 -10.5 14.5 -12 12 C-12.791013 7.97901723 -12.62153384 5.03588973 -10.5 1.5 C-6.96411027 -0.62153384 -4.02098277 -0.791013 0 0 Z " fill="#202020" transform="translate(324,416)"/>
<path d="M0 0 C2.5 1.5 2.5 1.5 4 4 C4.791013 8.02098277 4.62153384 10.96411027 2.5 14.5 C-1.03588973 16.62153384 -3.97901723 16.791013 -8 16 C-10.5 14.5 -10.5 14.5 -12 12 C-12.791013 7.97901723 -12.62153384 5.03588973 -10.5 1.5 C-6.96411027 -0.62153384 -4.02098277 -0.791013 0 0 Z " fill="#202020" transform="translate(372,392)"/>
<path d="M0 0 C2.5 1.5 2.5 1.5 4 4 C4.791013 8.02098277 4.62153384 10.96411027 2.5 14.5 C-1.03588973 16.62153384 -3.97901723 16.791013 -8 16 C-10.5 14.5 -10.5 14.5 -12 12 C-12.791013 7.97901723 -12.62153384 5.03588973 -10.5 1.5 C-6.96411027 -0.62153384 -4.02098277 -0.791013 0 0 Z " fill="#202020" transform="translate(348,392)"/>
<path d="M0 0 C2.5 1.5 2.5 1.5 4 4 C4.791013 8.02098277 4.62153384 10.96411027 2.5 14.5 C-1.03588973 16.62153384 -3.97901723 16.791013 -8 16 C-10.5 14.5 -10.5 14.5 -12 12 C-12.791013 7.97901723 -12.62153384 5.03588973 -10.5 1.5 C-6.96411027 -0.62153384 -4.02098277 -0.791013 0 0 Z " fill="#202020" transform="translate(324,392)"/>
<path d="M0 0 C2.5 1.5 2.5 1.5 4 4 C4.791013 8.02098277 4.62153384 10.96411027 2.5 14.5 C-1.03588973 16.62153384 -3.97901723 16.791013 -8 16 C-10.5 14.5 -10.5 14.5 -12 12 C-12.791013 7.97901723 -12.62153384 5.03588973 -10.5 1.5 C-6.96411027 -0.62153384 -4.02098277 -0.791013 0 0 Z " fill="#202020" transform="translate(372,368)"/>
<path d="M0 0 C2.5 1.5 2.5 1.5 4 4 C4.791013 8.02098277 4.62153384 10.96411027 2.5 14.5 C-1.03588973 16.62153384 -3.97901723 16.791013 -8 16 C-10.5 14.5 -10.5 14.5 -12 12 C-12.791013 7.97901723 -12.62153384 5.03588973 -10.5 1.5 C-6.96411027 -0.62153384 -4.02098277 -0.791013 0 0 Z " fill="#202020" transform="translate(348,368)"/>
<path d="M0 0 C2.5 1.5 2.5 1.5 4 4 C4.791013 8.02098277 4.62153384 10.96411027 2.5 14.5 C-1.03588973 16.62153384 -3.97901723 16.791013 -8 16 C-10.5 14.5 -10.5 14.5 -12 12 C-12.791013 7.97901723 -12.62153384 5.03588973 -10.5 1.5 C-6.96411027 -0.62153384 -4.02098277 -0.791013 0 0 Z " fill="#202020" transform="translate(324,368)"/>
<path d="M0 0 C2.5 1.5 2.5 1.5 4 4 C4.791013 8.02098277 4.62153384 10.96411027 2.5 14.5 C-1.03588973 16.62153384 -3.97901723 16.791013 -8 16 C-10.5 14.5 -10.5 14.5 -12 12 C-12.791013 7.97901723 -12.62153384 5.03588973 -10.5 1.5 C-6.96411027 -0.62153384 -4.02098277 -0.791013 0 0 Z " fill="#202020" transform="translate(260,136)"/>
<path d="M0 0 C2.5 1.5 2.5 1.5 4 4 C4.791013 8.02098277 4.62153384 10.96411027 2.5 14.5 C-1.03588973 16.62153384 -3.97901723 16.791013 -8 16 C-10.5 14.5 -10.5 14.5 -12 12 C-12.791013 7.97901723 -12.62153384 5.03588973 -10.5 1.5 C-6.96411027 -0.62153384 -4.02098277 -0.791013 0 0 Z " fill="#202020" transform="translate(236,136)"/>
<path d="M0 0 C2.5 1.5 2.5 1.5 4 4 C4.791013 8.02098277 4.62153384 10.96411027 2.5 14.5 C-1.03588973 16.62153384 -3.97901723 16.791013 -8 16 C-10.5 14.5 -10.5 14.5 -12 12 C-12.791013 7.97901723 -12.62153384 5.03588973 -10.5 1.5 C-6.96411027 -0.62153384 -4.02098277 -0.791013 0 0 Z " fill="#202020" transform="translate(212,136)"/>
<path d="M0 0 C2.5 1.5 2.5 1.5 4 4 C4.791013 8.02098277 4.62153384 10.96411027 2.5 14.5 C-1.03588973 16.62153384 -3.97901723 16.791013 -8 16 C-10.5 14.5 -10.5 14.5 -12 12 C-12.791013 7.97901723 -12.62153384 5.03588973 -10.5 1.5 C-6.96411027 -0.62153384 -4.02098277 -0.791013 0 0 Z " fill="#202020" transform="translate(188,136)"/>
<path d="M0 0 C2.5 1.5 2.5 1.5 4 4 C4.791013 8.02098277 4.62153384 10.96411027 2.5 14.5 C-1.03588973 16.62153384 -3.97901723 16.791013 -8 16 C-10.5 14.5 -10.5 14.5 -12 12 C-12.791013 7.97901723 -12.62153384 5.03588973 -10.5 1.5 C-6.96411027 -0.62153384 -4.02098277 -0.791013 0 0 Z " fill="#202020" transform="translate(164,136)"/>
</svg>
